<svg xmlns="http://www.w3.org/2000/svg" viewBox="-1 -1 217.6 26" width="435.2" height="52" role="img" aria-label="HOMINGVECTOR"><path transform="translate(0 0)" fill="none" stroke="#f2f0ea" stroke-width="3.4" stroke-linejoin="miter" stroke-miterlimit="10" stroke-linecap="butt" d="M1.7 1.7V22.3M13.3 1.7V22.3M1.7 11.6H13.3"/><path transform="translate(18.2 0)" fill="none" stroke="#f2f0ea" stroke-width="3.4" stroke-linejoin="miter" stroke-miterlimit="10" stroke-linecap="butt" d="M6.7 1.7H10.3L15.3 6.7V17.3L10.3 22.3H6.7L1.7 17.3V6.7Z"/><path transform="translate(38.4 0)" fill="none" stroke="#f2f0ea" stroke-width="3.4" stroke-linejoin="bevel" stroke-miterlimit="10" stroke-linecap="butt" d="M1.7 22.3V1.7L9.5 14.7L17.3 1.7V22.3"/><path transform="translate(60.6 0)" fill="none" stroke="#f2f0ea" stroke-width="3.4" stroke-linejoin="miter" stroke-miterlimit="10" stroke-linecap="butt" d="M1.7 1.7V22.3"/><path transform="translate(67.2 0)" fill="none" stroke="#f2f0ea" stroke-width="3.4" stroke-linejoin="miter" stroke-miterlimit="10" stroke-linecap="butt" d="M1.7 22.3V1.7L13.3 22.3V1.7"/><path transform="translate(85.4 0)" fill="none" stroke="#f2f0ea" stroke-width="3.4" stroke-linejoin="miter" stroke-miterlimit="10" stroke-linecap="butt" d="M15.3 1.7H6.7L1.7 6.7V17.3L6.7 22.3H15.3V12.6H9.5"/><path fill="#f2f0ea" d="M105.6 0H110.8L116.2 24H113Z"/><path fill="#f2f0ea" d="M122 0H123.6L119 16H117.4Z"/><path transform="translate(126.8 0)" fill="none" stroke="#f2f0ea" stroke-width="3.4" stroke-linejoin="miter" stroke-miterlimit="10" stroke-linecap="butt" d="M13 1.7H1.7V22.3H13M1.7 11.6H11"/><path transform="translate(143 0)" fill="none" stroke="#f2f0ea" stroke-width="3.4" stroke-linejoin="miter" stroke-miterlimit="10" stroke-linecap="butt" d="M16 1.7H6.7L1.7 6.7V17.3L6.7 22.3H16"/><path transform="translate(162.2 0)" fill="none" stroke="#f2f0ea" stroke-width="3.4" stroke-linejoin="miter" stroke-miterlimit="10" stroke-linecap="butt" d="M0 1.7H15M7.5 1.7V22.3"/><path transform="translate(180.4 0)" fill="none" stroke="#f2f0ea" stroke-width="3.4" stroke-linejoin="miter" stroke-miterlimit="10" stroke-linecap="butt" d="M6.7 1.7H10.3L15.3 6.7V17.3L10.3 22.3H6.7L1.7 17.3V6.7Z"/><path transform="translate(200.6 0)" fill="none" stroke="#f2f0ea" stroke-width="3.4" stroke-linejoin="miter" stroke-miterlimit="10" stroke-linecap="butt" d="M1.7 22.3V1.7H8.3L13.3 6.7V8.299999999999999L8.3 11.6H1.7M7.5 11.6L13.3 22.3"/></svg>
