<svg xmlns="http://www.w3.org/2000/svg" viewBox="0 0 1600 960" font-family="IBM Plex Mono, monospace" font-size="13"><rect width="1600" height="960" fill="#081012"/><rect x="415.4" y="110.8" width="572.3" height="738.5" fill="none" stroke="#ece7da" stroke-opacity=".4" stroke-dasharray="2 4"/><text x="423.4" y="102.8" fill="#a9b5b0">SEARCH AREA · ABSTRACT, SIMULATED</text><path d="M443.1 456.9L443.1 133.8" stroke="#ece7da" stroke-opacity="0.16"/><path d="M500.5 133.8L500.5 456.9" stroke="#ece7da" stroke-opacity="0.16"/><path d="M557.9 456.9L557.9 133.8" stroke="#ece7da" stroke-opacity="0.16"/><path d="M615.4 133.8L615.4 456.9" stroke="#ece7da" stroke-opacity="0.16"/><path d="M672.8 456.9L672.8 133.8" stroke="#ece7da" stroke-opacity="0.16"/><path d="M730.3 133.8L730.3 456.9" stroke="#ece7da" stroke-opacity="0.16"/><path d="M787.7 456.9L787.7 133.8" stroke="#ece7da" stroke-opacity="0.16"/><path d="M845.1 133.8L845.1 456.9" stroke="#ece7da" stroke-opacity="0.75"/><path d="M902.6 456.9L902.6 133.8" stroke="#ece7da" stroke-opacity="0.75"/><path d="M960.0 133.8L960.0 456.9" stroke="#ece7da" stroke-opacity="0.75"/><path d="M443.1 826.2L443.1 503.1" stroke="#ece7da" stroke-opacity="0.16"/><path d="M500.5 503.1L500.5 826.2" stroke="#ece7da" stroke-opacity="0.16"/><path d="M557.9 826.2L557.9 503.1" stroke="#ece7da" stroke-opacity="0.16"/><path d="M615.4 503.1L615.4 826.2" stroke="#ece7da" stroke-opacity="0.16"/><path d="M672.8 826.2L672.8 503.1" stroke="#ece7da" stroke-opacity="0.16"/><path d="M730.3 503.1L730.3 826.2" stroke="#ece7da" stroke-opacity="0.16"/><path d="M787.7 826.2L787.7 503.1" stroke="#ece7da" stroke-opacity="0.75"/><path d="M845.1 503.1L845.1 826.2" stroke="#ece7da" stroke-opacity="0.75"/><path d="M902.6 826.2L902.6 503.1" stroke="#ece7da" stroke-opacity="0.75"/><path d="M960.0 503.1L960.0 826.2" stroke="#ece7da" stroke-opacity="0.75"/><path d="M-560.2 689l14 14m0-14l-14 14" stroke="#ff4a2b" stroke-width="2"/><text x="-543.2" y="688" fill="#ff4a2b">U01 LOST</text><path transform="translate(412.5 296.4) rotate(-136.0)" d="M10 0L2.5 1L.6 9.2L-1.2 9.2L-2.2 1L-6.2 .8L-7.4 3.8L-8.6 3.8L-8 0L-8.6 -3.8L-7.4 -3.8L-6.2 -.8L-2.2 -1L-1.2 -9.2L.6 -9.2L2.5 -1Z" fill="#c6f032" stroke="#ece7da" stroke-width="0"/><text x="425.5" y="288.4" fill="#a9b5b0">U02 L</text><path transform="translate(886.6 456.3) rotate(-17.6)" d="M10 0L2.5 1L.6 9.2L-1.2 9.2L-2.2 1L-6.2 .8L-7.4 3.8L-8.6 3.8L-8 0L-8.6 -3.8L-7.4 -3.8L-6.2 -.8L-2.2 -1L-1.2 -9.2L.6 -9.2L2.5 -1Z" fill="#c6f032" stroke="#ece7da" stroke-width="0"/><text x="899.6" y="448.3" fill="#a9b5b0">U03</text><path d="M440.9 248.7l14 14m0-14l-14 14" stroke="#ff4a2b" stroke-width="2"/><text x="457.9" y="247.7" fill="#ff4a2b">U04 LOST</text><path transform="translate(435.1 216.8) rotate(164.9)" d="M10 0L2.5 1L.6 9.2L-1.2 9.2L-2.2 1L-6.2 .8L-7.4 3.8L-8.6 3.8L-8 0L-8.6 -3.8L-7.4 -3.8L-6.2 -.8L-2.2 -1L-1.2 -9.2L.6 -9.2L2.5 -1Z" fill="#c6f032" stroke="#ece7da" stroke-width="0"/><text x="448.1" y="208.8" fill="#a9b5b0">U05</text><path transform="translate(703.2 164.4) rotate(166.4)" d="M10 0L2.5 1L.6 9.2L-1.2 9.2L-2.2 1L-6.2 .8L-7.4 3.8L-8.6 3.8L-8 0L-8.6 -3.8L-7.4 -3.8L-6.2 -.8L-2.2 -1L-1.2 -9.2L.6 -9.2L2.5 -1Z" fill="#c6f032" stroke="#ece7da" stroke-width="0"/><text x="716.2" y="156.4" fill="#a9b5b0">U06</text><path transform="translate(949 159.5) rotate(87.9)" d="M10 0L2.5 1L.6 9.2L-1.2 9.2L-2.2 1L-6.2 .8L-7.4 3.8L-8.6 3.8L-8 0L-8.6 -3.8L-7.4 -3.8L-6.2 -.8L-2.2 -1L-1.2 -9.2L.6 -9.2L2.5 -1Z" fill="#c6f032" stroke="#ece7da" stroke-width="0"/><text x="962" y="151.5" fill="#a9b5b0">U07</text><path transform="translate(620.5 394.4) rotate(-153.3)" d="M10 0L2.5 1L.6 9.2L-1.2 9.2L-2.2 1L-6.2 .8L-7.4 3.8L-8.6 3.8L-8 0L-8.6 -3.8L-7.4 -3.8L-6.2 -.8L-2.2 -1L-1.2 -9.2L.6 -9.2L2.5 -1Z" fill="#c6f032" stroke="#ece7da" stroke-width="0"/><text x="633.5" y="386.4" fill="#a9b5b0">U08</text><path transform="translate(299.5 262.7) rotate(128.9)" d="M10 0L2.5 1L.6 9.2L-1.2 9.2L-2.2 1L-6.2 .8L-7.4 3.8L-8.6 3.8L-8 0L-8.6 -3.8L-7.4 -3.8L-6.2 -.8L-2.2 -1L-1.2 -9.2L.6 -9.2L2.5 -1Z" fill="#c6f032" stroke="#ece7da" stroke-width="0"/><text x="312.5" y="254.7" fill="#a9b5b0">U09</text><path transform="translate(844.4 416.5) rotate(88.9)" d="M10 0L2.5 1L.6 9.2L-1.2 9.2L-2.2 1L-6.2 .8L-7.4 3.8L-8.6 3.8L-8 0L-8.6 -3.8L-7.4 -3.8L-6.2 -.8L-2.2 -1L-1.2 -9.2L.6 -9.2L2.5 -1Z" fill="#c6f032" stroke="#ece7da" stroke-width="0"/><text x="857.4" y="408.5" fill="#a9b5b0">U10</text><path transform="translate(360.9 696.3) rotate(-42.2)" d="M10 0L2.5 1L.6 9.2L-1.2 9.2L-2.2 1L-6.2 .8L-7.4 3.8L-8.6 3.8L-8 0L-8.6 -3.8L-7.4 -3.8L-6.2 -.8L-2.2 -1L-1.2 -9.2L.6 -9.2L2.5 -1Z" fill="#0b1417" stroke="#ece7da" stroke-width="1.4"/><text x="373.9" y="688.3" fill="#a9b5b0">U11 L</text><path transform="translate(550 551.8) rotate(162.6)" d="M10 0L2.5 1L.6 9.2L-1.2 9.2L-2.2 1L-6.2 .8L-7.4 3.8L-8.6 3.8L-8 0L-8.6 -3.8L-7.4 -3.8L-6.2 -.8L-2.2 -1L-1.2 -9.2L.6 -9.2L2.5 -1Z" fill="#0b1417" stroke="#ece7da" stroke-width="1.4"/><text x="563" y="543.8" fill="#a9b5b0">U12</text><path transform="translate(306.4 622.8) rotate(137.7)" d="M10 0L2.5 1L.6 9.2L-1.2 9.2L-2.2 1L-6.2 .8L-7.4 3.8L-8.6 3.8L-8 0L-8.6 -3.8L-7.4 -3.8L-6.2 -.8L-2.2 -1L-1.2 -9.2L.6 -9.2L2.5 -1Z" fill="#0b1417" stroke="#ece7da" stroke-width="1.4"/><text x="319.4" y="614.8" fill="#a9b5b0">U13</text><path d="M460.9 702.8l14 14m0-14l-14 14" stroke="#ff4a2b" stroke-width="2"/><text x="477.9" y="701.8" fill="#ff4a2b">U14 LOST</text><path transform="translate(426.4 673.2) rotate(-140.4)" d="M10 0L2.5 1L.6 9.2L-1.2 9.2L-2.2 1L-6.2 .8L-7.4 3.8L-8.6 3.8L-8 0L-8.6 -3.8L-7.4 -3.8L-6.2 -.8L-2.2 -1L-1.2 -9.2L.6 -9.2L2.5 -1Z" fill="#0b1417" stroke="#ece7da" stroke-width="1.4"/><text x="439.4" y="665.2" fill="#a9b5b0">U15</text><path transform="translate(843.3 769.8) rotate(88.1)" d="M10 0L2.5 1L.6 9.2L-1.2 9.2L-2.2 1L-6.2 .8L-7.4 3.8L-8.6 3.8L-8 0L-8.6 -3.8L-7.4 -3.8L-6.2 -.8L-2.2 -1L-1.2 -9.2L.6 -9.2L2.5 -1Z" fill="#0b1417" stroke="#ece7da" stroke-width="1.4"/><text x="856.3" y="761.8" fill="#a9b5b0">U16</text><path transform="translate(891.1 815.3) rotate(-87.9)" d="M10 0L2.5 1L.6 9.2L-1.2 9.2L-2.2 1L-6.2 .8L-7.4 3.8L-8.6 3.8L-8 0L-8.6 -3.8L-7.4 -3.8L-6.2 -.8L-2.2 -1L-1.2 -9.2L.6 -9.2L2.5 -1Z" fill="#0b1417" stroke="#ece7da" stroke-width="1.4"/><text x="904.1" y="807.3" fill="#a9b5b0">U17</text><path transform="translate(786.2 561.2) rotate(-88.6)" d="M10 0L2.5 1L.6 9.2L-1.2 9.2L-2.2 1L-6.2 .8L-7.4 3.8L-8.6 3.8L-8 0L-8.6 -3.8L-7.4 -3.8L-6.2 -.8L-2.2 -1L-1.2 -9.2L.6 -9.2L2.5 -1Z" fill="#0b1417" stroke="#ece7da" stroke-width="1.4"/><text x="799.2" y="553.2" fill="#a9b5b0">U18</text><path transform="translate(630.4 768.6) rotate(-153.3)" d="M10 0L2.5 1L.6 9.2L-1.2 9.2L-2.2 1L-6.2 .8L-7.4 3.8L-8.6 3.8L-8 0L-8.6 -3.8L-7.4 -3.8L-6.2 -.8L-2.2 -1L-1.2 -9.2L.6 -9.2L2.5 -1Z" fill="#0b1417" stroke="#ece7da" stroke-width="1.4"/><text x="643.4" y="760.6" fill="#a9b5b0">U19</text><path transform="translate(952.7 619) rotate(88.0)" d="M10 0L2.5 1L.6 9.2L-1.2 9.2L-2.2 1L-6.2 .8L-7.4 3.8L-8.6 3.8L-8 0L-8.6 -3.8L-7.4 -3.8L-6.2 -.8L-2.2 -1L-1.2 -9.2L.6 -9.2L2.5 -1Z" fill="#0b1417" stroke="#ece7da" stroke-width="1.4"/><text x="965.7" y="611" fill="#a9b5b0">U20</text><text x="16" y="944" fill="#8b9894">A REAL FRAME OF THE SWARM MISSION ENGINE · SCENARIO 6, SEED 11, T+1304 S · GROUP A LIME, GROUP B OUTLINED</text></svg>
